<mxfile host="app.diagrams.net" agent="Mozilla/5.0 (Windows NT 10.0; Win64; x64; rv:135.0) Gecko/20100101 Firefox/135.0" version="26.0.16">
  <diagram name="Page-1" id="B3O9OAGcYMHH0F4P0OHp">
    <mxGraphModel dx="604" dy="367" grid="1" gridSize="10" guides="1" tooltips="1" connect="1" arrows="1" fold="1" page="1" pageScale="1" pageWidth="850" pageHeight="1100" math="0" shadow="0">
      <root>
        <mxCell id="0" />
        <mxCell id="1" parent="0" />
        <mxCell id="Ng1XPZVvvlD3635TVM57-1" value="Photostimulation sub-modules" style="html=1;overflow=block;blockSpacing=1;whiteSpace=wrap;fontSize=16.8;fontColor=default;fontStyle=1;spacing=3.8;strokeOpacity=0;fillOpacity=0;fillColor=#ffffff;strokeWidth=1.5;lucidId=L4cUF~HINPR~;" vertex="1" parent="1">
          <mxGeometry x="35" y="20" width="165" height="48" as="geometry" />
        </mxCell>
        <mxCell id="Ng1XPZVvvlD3635TVM57-2" value="" style="html=1;jettySize=18;whiteSpace=wrap;fontSize=13;strokeOpacity=100;strokeWidth=1.5;rounded=1;arcSize=0;edgeStyle=orthogonalEdgeStyle;startArrow=block;startFill=1;endArrow=none;exitX=-0.007;exitY=0.5;exitPerimeter=0;entryX=1.007;entryY=0.5;entryPerimeter=0;lucidId=L4cUvuylno_C;curved=1;" edge="1" parent="1" source="Ng1XPZVvvlD3635TVM57-27" target="Ng1XPZVvvlD3635TVM57-15">
          <mxGeometry width="100" height="100" relative="1" as="geometry" />
        </mxCell>
        <mxCell id="Ng1XPZVvvlD3635TVM57-3" value="Input light distribution on SLM&#xa;(Gaussian, centered at x0, y0),&#xa;lens focal length,&#xa;desired centered 3D pattern" style="text;html=1;resizable=0;labelBackgroundColor=default;align=center;verticalAlign=middle;fontColor=default;fontSize=13;" vertex="1" parent="Ng1XPZVvvlD3635TVM57-2">
          <mxGeometry x="-0.6124768151150211" relative="1" as="geometry">
            <mxPoint x="-68" y="-11" as="offset" />
          </mxGeometry>
        </mxCell>
        <mxCell id="Ng1XPZVvvlD3635TVM57-30" style="edgeStyle=orthogonalEdgeStyle;rounded=0;orthogonalLoop=1;jettySize=auto;html=1;exitX=0;exitY=0;exitDx=0;exitDy=0;" edge="1" parent="Ng1XPZVvvlD3635TVM57-2" source="Ng1XPZVvvlD3635TVM57-3" target="Ng1XPZVvvlD3635TVM57-3">
          <mxGeometry relative="1" as="geometry" />
        </mxCell>
        <mxCell id="Ng1XPZVvvlD3635TVM57-4" value="" style="html=1;jettySize=18;whiteSpace=wrap;fontSize=13;strokeOpacity=100;strokeWidth=1.5;rounded=1;arcSize=0;edgeStyle=orthogonalEdgeStyle;startArrow=block;startFill=1;endArrow=none;exitX=-0.007;exitY=0.526;exitPerimeter=0;lucidId=L4cUrVBBdsZ6;curved=1;" edge="1" parent="1" source="Ng1XPZVvvlD3635TVM57-15">
          <mxGeometry width="100" height="100" relative="1" as="geometry">
            <mxPoint x="20" y="217" as="targetPoint" />
          </mxGeometry>
        </mxCell>
        <mxCell id="Ng1XPZVvvlD3635TVM57-5" value="Input light distribution on SLM&#xa;(Gaussian, centered at x0, y0),&#xa;lens focal length,&#xa;desired 3D pattern,&#xa;temporal activation protocol,&#xa;power/point,&#xa;galvo path" style="text;html=1;resizable=0;labelBackgroundColor=default;align=center;verticalAlign=middle;fontColor=default;fontSize=13;" vertex="1" parent="Ng1XPZVvvlD3635TVM57-4">
          <mxGeometry relative="1" as="geometry">
            <mxPoint x="-13" y="-59" as="offset" />
          </mxGeometry>
        </mxCell>
        <mxCell id="Ng1XPZVvvlD3635TVM57-6" value="" style="html=1;jettySize=18;whiteSpace=wrap;fontSize=13;strokeOpacity=100;strokeWidth=1.5;rounded=1;arcSize=0;edgeStyle=orthogonalEdgeStyle;startArrow=none;endArrow=block;endFill=1;entryX=-0.007;entryY=0.495;entryPerimeter=0;lucidId=L4cUSSVxt~Zg;curved=1;" edge="1" parent="1" target="Ng1XPZVvvlD3635TVM57-18">
          <mxGeometry width="100" height="100" relative="1" as="geometry">
            <mxPoint x="335" y="215" as="sourcePoint" />
          </mxGeometry>
        </mxCell>
        <mxCell id="Ng1XPZVvvlD3635TVM57-7" value="x, y coordinates" style="text;html=1;resizable=0;labelBackgroundColor=default;align=center;verticalAlign=middle;fontColor=default;fontSize=13;" vertex="1" parent="Ng1XPZVvvlD3635TVM57-6">
          <mxGeometry relative="1" as="geometry">
            <mxPoint as="offset" />
          </mxGeometry>
        </mxCell>
        <mxCell id="Ng1XPZVvvlD3635TVM57-8" value="" style="html=1;jettySize=18;whiteSpace=wrap;fontSize=13;strokeOpacity=100;strokeWidth=1.5;rounded=1;arcSize=0;edgeStyle=orthogonalEdgeStyle;startArrow=none;endArrow=block;endFill=1;exitX=1.007;exitY=0.5;exitPerimeter=0;entryX=-0.007;entryY=0.5;entryPerimeter=0;lucidId=L4cUF9~V9uMc;curved=1;" edge="1" parent="1" source="Ng1XPZVvvlD3635TVM57-15" target="Ng1XPZVvvlD3635TVM57-23">
          <mxGeometry width="100" height="100" relative="1" as="geometry" />
        </mxCell>
        <mxCell id="Ng1XPZVvvlD3635TVM57-9" value="Temporal activation protocol,&#xa;N points, max power/point" style="text;html=1;resizable=0;labelBackgroundColor=default;align=center;verticalAlign=middle;fontColor=default;fontSize=13;" vertex="1" parent="Ng1XPZVvvlD3635TVM57-8">
          <mxGeometry x="0.3397818605608982" relative="1" as="geometry">
            <mxPoint x="-11" y="-33" as="offset" />
          </mxGeometry>
        </mxCell>
        <mxCell id="Ng1XPZVvvlD3635TVM57-10" value="" style="html=1;jettySize=18;whiteSpace=wrap;fontSize=13;strokeOpacity=100;strokeWidth=1.5;rounded=1;arcSize=0;edgeStyle=orthogonalEdgeStyle;startArrow=none;endArrow=block;endFill=1;exitX=0.5;exitY=-0.011;exitPerimeter=0;entryX=0.5;entryY=1.012;entryPerimeter=0;lucidId=L4cU1I5SRIa5;curved=1;" edge="1" parent="1" source="Ng1XPZVvvlD3635TVM57-25" target="Ng1XPZVvvlD3635TVM57-23">
          <mxGeometry width="100" height="100" relative="1" as="geometry" />
        </mxCell>
        <mxCell id="Ng1XPZVvvlD3635TVM57-11" value="Current power" style="text;html=1;resizable=0;labelBackgroundColor=default;align=center;verticalAlign=middle;fontColor=default;fontSize=13;" vertex="1" parent="Ng1XPZVvvlD3635TVM57-10">
          <mxGeometry x="-0.11011904761904623" relative="1" as="geometry">
            <mxPoint as="offset" />
          </mxGeometry>
        </mxCell>
        <mxCell id="Ng1XPZVvvlD3635TVM57-12" value="" style="html=1;jettySize=18;whiteSpace=wrap;fontSize=13;strokeOpacity=100;strokeWidth=1.5;rounded=1;arcSize=0;edgeStyle=orthogonalEdgeStyle;startArrow=none;endArrow=block;endFill=1;exitX=1.007;exitY=0.5;exitPerimeter=0;entryX=-0.007;entryY=0.474;entryPerimeter=0;lucidId=L4cU7nh6EryA;curved=1;" edge="1" parent="1" source="Ng1XPZVvvlD3635TVM57-27" target="Ng1XPZVvvlD3635TVM57-21">
          <mxGeometry width="100" height="100" relative="1" as="geometry" />
        </mxCell>
        <mxCell id="Ng1XPZVvvlD3635TVM57-13" value="Generated&#xa;pattern" style="text;html=1;resizable=0;labelBackgroundColor=default;align=center;verticalAlign=middle;fontColor=default;fontSize=13;" vertex="1" parent="Ng1XPZVvvlD3635TVM57-12">
          <mxGeometry relative="1" as="geometry">
            <mxPoint y="-21" as="offset" />
          </mxGeometry>
        </mxCell>
        <mxCell id="Ng1XPZVvvlD3635TVM57-14" value="" style="group;dropTarget=0;pointerEvents=0;" vertex="1" parent="1">
          <mxGeometry x="214" y="183" width="105" height="63.6499999999761" as="geometry" />
        </mxCell>
        <mxCell id="Ng1XPZVvvlD3635TVM57-15" value="photostim module coordinator" style="html=1;overflow=block;blockSpacing=1;whiteSpace=wrap;fontSize=13;fontColor=default;spacing=9;strokeOpacity=100;strokeWidth=1.5;lucidId=L4cUlSEFejQI;" vertex="1" parent="Ng1XPZVvvlD3635TVM57-14">
          <mxGeometry width="105" height="63" as="geometry" />
        </mxCell>
        <mxCell id="Ng1XPZVvvlD3635TVM57-16" value="" style="html=1;jettySize=18;whiteSpace=wrap;fontSize=13;strokeOpacity=100;strokeWidth=2.3;rounded=1;arcSize=0;edgeStyle=orthogonalEdgeStyle;startArrow=none;endArrow=block;endFill=1;lucidId=L4cUhd2FSqjz;" edge="1" parent="Ng1XPZVvvlD3635TVM57-14">
          <mxGeometry width="100" height="100" relative="1" as="geometry">
            <mxPoint x="78" y="64" as="sourcePoint" />
            <mxPoint x="70" y="64" as="targetPoint" />
          </mxGeometry>
        </mxCell>
        <mxCell id="Ng1XPZVvvlD3635TVM57-17" value="" style="group;dropTarget=0;pointerEvents=0;" vertex="1" parent="1">
          <mxGeometry x="635" y="183" width="105" height="63.6499999999761" as="geometry" />
        </mxCell>
        <mxCell id="Ng1XPZVvvlD3635TVM57-18" value="photostim galvos control" style="html=1;overflow=block;blockSpacing=1;whiteSpace=wrap;fontSize=13;fontColor=default;spacing=9;strokeOpacity=100;strokeWidth=1.5;lucidId=L4cUojwdGEbi;" vertex="1" parent="Ng1XPZVvvlD3635TVM57-17">
          <mxGeometry width="105" height="63" as="geometry" />
        </mxCell>
        <mxCell id="Ng1XPZVvvlD3635TVM57-19" value="" style="html=1;jettySize=18;whiteSpace=wrap;fontSize=13;strokeOpacity=100;strokeWidth=2.3;rounded=1;arcSize=0;edgeStyle=orthogonalEdgeStyle;startArrow=none;endArrow=block;endFill=1;lucidId=L4cU7JKuiN-I;" edge="1" parent="Ng1XPZVvvlD3635TVM57-17">
          <mxGeometry width="100" height="100" relative="1" as="geometry">
            <mxPoint x="78" y="64" as="sourcePoint" />
            <mxPoint x="71" y="64" as="targetPoint" />
          </mxGeometry>
        </mxCell>
        <mxCell id="Ng1XPZVvvlD3635TVM57-20" value="" style="group;dropTarget=0;pointerEvents=0;" vertex="1" parent="1">
          <mxGeometry x="635" y="91" width="105" height="63.79999999997608" as="geometry" />
        </mxCell>
        <mxCell id="Ng1XPZVvvlD3635TVM57-21" value="SLM control&#xa;&amp; display" style="html=1;overflow=block;blockSpacing=1;whiteSpace=wrap;fontSize=13;fontColor=default;spacing=9;strokeOpacity=100;strokeWidth=1.5;lucidId=L4cU4ImTg.uN;" vertex="1" parent="Ng1XPZVvvlD3635TVM57-20">
          <mxGeometry width="105" height="63" as="geometry" />
        </mxCell>
        <mxCell id="Ng1XPZVvvlD3635TVM57-22" value="" style="html=1;jettySize=18;whiteSpace=wrap;fontSize=13;strokeOpacity=100;strokeWidth=2.3;rounded=1;arcSize=0;edgeStyle=orthogonalEdgeStyle;startArrow=none;endArrow=block;endFill=1;lucidId=L4cUZLpZK4Bo;" edge="1" parent="Ng1XPZVvvlD3635TVM57-20">
          <mxGeometry width="100" height="100" relative="1" as="geometry">
            <mxPoint x="78" y="64" as="sourcePoint" />
            <mxPoint x="71" y="64" as="targetPoint" />
          </mxGeometry>
        </mxCell>
        <mxCell id="Ng1XPZVvvlD3635TVM57-23" value="photostim Pockels cell power control" style="html=1;overflow=block;blockSpacing=1;whiteSpace=wrap;fontSize=13;fontColor=default;spacing=9;strokeOpacity=100;strokeWidth=1.5;lucidId=L4cUr0KG45mP;container=1;collapsible=0;" vertex="1" parent="1">
          <mxGeometry x="530" y="272" width="105" height="63" as="geometry" />
        </mxCell>
        <mxCell id="Ng1XPZVvvlD3635TVM57-24" value="" style="html=1;jettySize=18;whiteSpace=wrap;fontSize=13;strokeOpacity=100;strokeWidth=2.3;rounded=1;arcSize=0;edgeStyle=orthogonalEdgeStyle;startArrow=none;endArrow=block;endFill=1;lucidId=L4cUv3l.BK4Z;" edge="1" parent="Ng1XPZVvvlD3635TVM57-23">
          <mxGeometry width="100" height="100" relative="1" as="geometry">
            <mxPoint x="78" y="61" as="sourcePoint" />
            <mxPoint x="71" y="61" as="targetPoint" />
          </mxGeometry>
        </mxCell>
        <mxCell id="Ng1XPZVvvlD3635TVM57-25" value="photostim slow&#xa;power control" style="html=1;overflow=block;blockSpacing=1;whiteSpace=wrap;fontSize=13;fontColor=default;spacing=9;strokeOpacity=100;strokeWidth=1.5;lucidId=L4cUQwIAX.QJ;container=1;collapsible=0;" vertex="1" parent="1">
          <mxGeometry x="530" y="365" width="105" height="67" as="geometry" />
        </mxCell>
        <mxCell id="Ng1XPZVvvlD3635TVM57-26" value="" style="html=1;jettySize=18;whiteSpace=wrap;fontSize=13;strokeOpacity=100;strokeWidth=2.3;rounded=1;arcSize=0;edgeStyle=orthogonalEdgeStyle;startArrow=none;endArrow=block;endFill=1;lucidId=L4cUFKj-guA2;" edge="1" parent="Ng1XPZVvvlD3635TVM57-25">
          <mxGeometry width="100" height="100" relative="1" as="geometry">
            <mxPoint x="78" y="65" as="sourcePoint" />
            <mxPoint x="71" y="65" as="targetPoint" />
          </mxGeometry>
        </mxCell>
        <mxCell id="Ng1XPZVvvlD3635TVM57-27" value="Generate SLM pattern" style="html=1;overflow=block;blockSpacing=1;whiteSpace=wrap;fontSize=13;fontColor=default;spacing=3.8;strokeOpacity=100;strokeWidth=1.5;lucidId=L4cURXrmTDde;" vertex="1" parent="1">
          <mxGeometry x="440" y="90" width="105" height="63" as="geometry" />
        </mxCell>
        <mxCell id="Ng1XPZVvvlD3635TVM57-28" value="`" style="html=1;jettySize=18;whiteSpace=wrap;fontSize=13;strokeOpacity=100;strokeWidth=1.5;rounded=1;arcSize=0;curved=1;startArrow=none;endArrow=block;endFill=1;exitX=0.5;exitY=1.012;exitPerimeter=0;entryX=1.007;entryY=-0.012;entryPerimeter=0;lucidId=L4cUGsMENcT.;edgeStyle=orthogonalEdgeStyle;" edge="1" parent="1" source="Ng1XPZVvvlD3635TVM57-21" target="Ng1XPZVvvlD3635TVM57-15">
          <mxGeometry width="100" height="100" relative="1" as="geometry">
            <Array as="points">
              <mxPoint x="688" y="172" />
              <mxPoint x="477" y="172" />
              <mxPoint x="477" y="170" />
              <mxPoint x="340" y="170" />
              <mxPoint x="340" y="182" />
            </Array>
          </mxGeometry>
        </mxCell>
        <mxCell id="Ng1XPZVvvlD3635TVM57-29" value="SLM &#39;ready&#39; signal" style="text;html=1;resizable=0;labelBackgroundColor=default;align=center;verticalAlign=middle;fontColor=default;fontSize=13;" vertex="1" parent="Ng1XPZVvvlD3635TVM57-28">
          <mxGeometry x="0.5032599416316048" relative="1" as="geometry">
            <mxPoint x="102.73499999999999" as="offset" />
          </mxGeometry>
        </mxCell>
        <mxCell id="Ng1XPZVvvlD3635TVM57-32" value="`" style="html=1;jettySize=18;whiteSpace=wrap;fontSize=13;strokeOpacity=100;strokeWidth=1.5;rounded=1;arcSize=0;curved=1;startArrow=none;endArrow=block;endFill=1;exitX=0.5;exitY=1.012;exitPerimeter=0;entryX=1.007;entryY=-0.012;entryPerimeter=0;lucidId=L4cUGsMENcT.;edgeStyle=orthogonalEdgeStyle;" edge="1" parent="1" source="Ng1XPZVvvlD3635TVM57-21" target="Ng1XPZVvvlD3635TVM57-15">
          <mxGeometry width="100" height="100" relative="1" as="geometry">
            <Array as="points">
              <mxPoint x="688" y="172" />
              <mxPoint x="477" y="172" />
              <mxPoint x="477" y="170" />
              <mxPoint x="340" y="170" />
              <mxPoint x="340" y="182" />
            </Array>
            <mxPoint x="688" y="155" as="sourcePoint" />
            <mxPoint x="320" y="182" as="targetPoint" />
          </mxGeometry>
        </mxCell>
        <mxCell id="Ng1XPZVvvlD3635TVM57-33" value="SLM &#39;ready&#39; signal" style="text;html=1;resizable=0;labelBackgroundColor=default;align=center;verticalAlign=middle;fontColor=default;fontSize=13;" vertex="1" parent="Ng1XPZVvvlD3635TVM57-32">
          <mxGeometry x="0.5032599416316048" relative="1" as="geometry">
            <mxPoint x="102.73499999999999" as="offset" />
          </mxGeometry>
        </mxCell>
      </root>
    </mxGraphModel>
  </diagram>
</mxfile>
